<?xml version="1.0" encoding="UTF-8"?>
<svg id="Layer_1" xmlns="http://www.w3.org/2000/svg" version="1.1" viewBox="0 0 400 400">
  <!-- Generator: Adobe Illustrator 29.2.1, SVG Export Plug-In . SVG Version: 2.1.0 Build 116)  -->
  <defs>
    <style>
      .st0, .st1 {
        fill: none;
      }

      .st0, .st1, .st2 {
        stroke: #fff;
        stroke-miterlimit: 10;
      }

      .st1, .st2 {
        stroke-width: 3px;
      }

      .st3 {
        fill: #fff;
      }
    </style>
  </defs>
  <circle class="st2" cx="200" cy="200" r="189.1"/>
  <circle class="st0" cx="200" cy="200" r="181"/>
  <circle class="st0" cx="200" cy="200" r="175.6"/>
  <circle class="st1" cx="200" cy="200" r="167.5"/>
  <path class="st1" d="M347.3,200c0,40.7-16.5,77.5-43.1,104.1l14.3,14.3c30.3-30.3,49.1-72.2,49.1-118.5s-18.8-88.1-49.1-118.5l-14.3,14.3c26.6,26.6,43.1,63.5,43.1,104.1v.2Z"/>
  <path class="st1" d="M81.5,318.5l14.3-14.3c-26.6-26.6-43.1-63.5-43.1-104.1s16.5-77.5,43.1-104.1l-14.3-14.3c-30.3,30.3-49.1,72.2-49.1,118.5s18.8,88.1,49.1,118.5v-.2Z"/>
  <path class="st1" d="M333.7,200c0,22.7-5.6,44-15.6,62.7l11.9,6.3c11-20.6,17.2-44.1,17.2-69.1s-6.2-48.5-17.2-69.1l-11.9,6.3c10,18.7,15.6,40.1,15.6,62.7v.2Z"/>
  <path class="st1" d="M66.3,200c0-22.7,5.6-44,15.6-62.7l-11.9-6.3c-11,20.6-17.2,44.1-17.2,69.1s6.2,48.5,17.2,69.1l11.9-6.3c-10-18.7-15.6-40.1-15.6-62.7v-.2Z"/>
  <path class="st3" d="M131.1,238.8c-1.6-1.7-2.5-3.7-2.5-5.9,0-3.8,3-6.7,6.2-6.7s6.7,3,6.7,6.2-.2,1.5-.4,2.1c1.3.6,3.1.9,5.2.9,6.2,0,14.3-7,14.7-21.2-2.5,3.7-8,6.8-14.2,6.8-11.9,0-20.8-8.1-20.8-18.7s9.3-19.6,22.2-19.6,11.4,1.8,15.3,5.7c4.6,4.6,7.3,11.9,7.3,21.5,0,21.8-11.6,33.7-25.3,33.7s-11.3-1.8-14.2-5l-.2.2ZM148.1,191.1c-6.9,0-11.9,5.2-11.9,11.3s4.5,10.4,11.5,10.4,12.4-4.7,12.4-10.8-1.3-5.6-3.4-7.6c-2.1-1.9-5.1-3.2-8.5-3.2h-.1Z"/>
  <path class="st3" d="M178.5,207.9c0-14.3,9.7-25.1,23.1-25.1s23.1,10.7,23.1,25.1-9.7,25-23.1,25-23.1-10.6-23.1-25ZM214.4,207.9c0-9.5-5.2-16.6-12.8-16.6s-12.8,7.1-12.8,16.6,5.2,16.5,12.8,16.5,12.8-7,12.8-16.5Z"/>
  <path class="st3" d="M244,193.4c.6,1,1.1,2.2,1.1,3.4,0,3.3-2.8,6.1-6.1,6.1s-6.3-2.9-6.3-7.3.7-3.5,2.1-5.3c3.1-4.1,9.6-7.5,17.8-7.5,12.1,0,19.1,7.1,19.1,14.1s-6.4,12.3-14.8,17c-6.9,3.9-10.6,6.7-12.8,10.1h20.9v-7.8h8.3v15.8h-40.4l-1.8-5c3.7-8.5,11.3-14.6,19.7-19.6,6.1-3.6,10.5-6.4,10.5-10.3s-4-6-9.2-6-6.7.8-8.3,2.1l.2.2Z"/>
  <line class="st1" x1="273.3" y1="239.1" x2="174.7" y2="239.1"/>
</svg>