<?xml version="1.0" encoding="UTF-8"?>
<svg id="Layer_1" xmlns="http://www.w3.org/2000/svg" version="1.1" viewBox="0 0 400 400">
  <!-- Generator: Adobe Illustrator 29.2.1, SVG Export Plug-In . SVG Version: 2.1.0 Build 116)  -->
  <defs>
    <style>
      .st0, .st1, .st2 {
        fill: none;
        stroke: #fff;
        stroke-miterlimit: 10;
      }

      .st1 {
        stroke-width: 2px;
      }

      .st2 {
        stroke-width: 2.3px;
      }
    </style>
  </defs>
  <path d="M91,400c0-50.3-40.7-91-91-91v91h91Z"/>
  <path class="st1" d="M0,309c50.3,0,91,40.7,91,91"/>
  <path class="st0" d="M0,303c53.6,0,97,43.4,97,97"/>
  <path class="st0" d="M0,299c55.8,0,101,45.2,101,101"/>
  <path class="st1" d="M0,293c59.1,0,107,47.9,107,107"/>
  <polyline class="st0" points="0 392 8 392 8 400"/>
  <line class="st2" x1="8" y1="392" x2="8" y2="317"/>
  <line class="st2" x1="8" y1="392" x2="83" y2="392"/>
  <line class="st2" x1="8" y1="392" x2="61" y2="339"/>
  <line class="st2" x1="8" y1="392" x2="61" y2="339"/>
  <line class="st2" x1="8" y1="392" x2="49.9" y2="329.8"/>
  <line class="st2" x1="8" y1="392" x2="37" y2="322.8"/>
  <line class="st2" x1="8" y1="392" x2="23" y2="318.5"/>
  <line class="st2" x1="8" y1="392" x2="81.6" y2="377.6"/>
  <line class="st2" x1="8" y1="392" x2="77.4" y2="363.6"/>
  <line class="st2" x1="8" y1="392" x2="70.5" y2="350.6"/>
</svg>