<?xml version="1.0" encoding="UTF-8"?>
<svg id="Layer_1" xmlns="http://www.w3.org/2000/svg" version="1.1" viewBox="0 0 400 400">
  <!-- Generator: Adobe Illustrator 29.2.1, SVG Export Plug-In . SVG Version: 2.1.0 Build 116)  -->
  <defs>
    <style>
      .st0 {
        fill: #fff;
      }

      .st1, .st2, .st3 {
        fill: none;
        stroke: #000;
        stroke-miterlimit: 10;
      }

      .st2 {
        stroke-width: 2.3px;
      }

      .st3 {
        stroke-width: 2px;
      }
    </style>
  </defs>
  <path class="st0" d="M400,309c-50.3,0-91,40.7-91,91h91v-91Z"/>
  <path class="st3" d="M309,400c0-50.3,40.7-91,91-91"/>
  <path class="st1" d="M303,400c0-53.6,43.4-97,97-97"/>
  <path class="st1" d="M299,400c0-55.8,45.2-101,101-101"/>
  <path class="st3" d="M293,400c0-59.1,47.9-107,107-107"/>
  <polyline class="st1" points="392 400 392 392 400 392"/>
  <line class="st2" x1="392" y1="392" x2="317" y2="392"/>
  <line class="st2" x1="392" y1="392" x2="392" y2="317"/>
  <line class="st2" x1="392" y1="392" x2="339" y2="339"/>
  <line class="st2" x1="392" y1="392" x2="339" y2="339"/>
  <line class="st2" x1="392" y1="392" x2="329.8" y2="350.1"/>
  <line class="st2" x1="392" y1="392" x2="322.8" y2="363"/>
  <line class="st2" x1="392" y1="392" x2="318.5" y2="377"/>
  <line class="st2" x1="392" y1="392" x2="377.6" y2="318.4"/>
  <line class="st2" x1="392" y1="392" x2="363.6" y2="322.6"/>
  <line class="st2" x1="392" y1="392" x2="350.6" y2="329.5"/>
</svg>