<?xml version="1.0" encoding="UTF-8"?>
<svg id="Layer_1" xmlns="http://www.w3.org/2000/svg" version="1.1" viewBox="0 0 60 60">
  <!-- Generator: Adobe Illustrator 29.2.1, SVG Export Plug-In . SVG Version: 2.1.0 Build 116)  -->
  <defs>
    <style>
      .st0 {
        fill: none;
        stroke: #000;
        stroke-miterlimit: 10;
      }
    </style>
  </defs>
  <path class="st0" d="M18.4,17.1c-2.3-2.3-2.3-6.1,0-8.5s6.1-2.3,8.5,0"/>
  <path class="st0" d="M16.3,19.2c-3.5-3.5-3.5-9.2,0-12.7s9.2-3.5,12.7,0"/>
  <path class="st0" d="M14.1,21.3c-4.7-4.7-4.7-12.3,0-17s12.3-4.7,17,0"/>
  <path class="st0" d="M41.6,23.3c2.3,2.3,2.3,6.1,0,8.5s-6.1,2.3-8.5,0"/>
  <path class="st0" d="M43.7,21.2c3.5,3.5,3.5,9.2,0,12.7s-9.2,3.5-12.7,0"/>
  <path class="st0" d="M45.9,19.1c4.7,4.7,4.7,12.3,0,17-4.7,4.7-12.3,4.7-17,0"/>
  <path class="st0" d="M33.1,8.6c2.3-2.3,6.1-2.3,8.5,0s2.3,6.1,0,8.5"/>
  <path class="st0" d="M31,6.5c3.5-3.5,9.2-3.5,12.7,0s3.5,9.2,0,12.7"/>
  <path class="st0" d="M28.9,4.4c4.7-4.7,12.3-4.7,17,0s4.7,12.3,0,17"/>
  <path class="st0" d="M26.9,31.8c-2.3,2.3-6.1,2.3-8.5,0s-2.3-6.1,0-8.5"/>
  <path class="st0" d="M29,34c-3.5,3.5-9.2,3.5-12.7,0s-3.5-9.2,0-12.7"/>
  <path class="st0" d="M31.1,36.1c-4.7,4.7-12.3,4.7-17,0s-4.7-12.3,0-17"/>
  <path class="st0" d="M29.9,40.9c-1,12.5-6.7,17-6.7,17"/>
  <g>
    <path class="st0" d="M21.3,55.5c.2-.1,4.7-4,5.6-14.9"/>
    <path class="st0" d="M32.8,41.1c-.8,10.2-4.7,15.7-6.6,17.9"/>
  </g>
</svg>