<?xml version="1.0" encoding="UTF-8"?>
<svg id="Layer_1" xmlns="http://www.w3.org/2000/svg" version="1.1" viewBox="0 0 400 400">
  <!-- Generator: Adobe Illustrator 29.2.1, SVG Export Plug-In . SVG Version: 2.1.0 Build 116)  -->
  <defs>
    <style>
      .st0 {
        fill: #fff;
      }

      .st1, .st2, .st3 {
        fill: none;
        stroke: #000;
        stroke-miterlimit: 10;
      }

      .st2 {
        stroke-width: 2.3px;
      }

      .st3 {
        stroke-width: 2px;
      }
    </style>
  </defs>
  <path class="st0" d="M0,91c50.3,0,91-40.7,91-91H0v91Z"/>
  <path class="st3" d="M91,0c0,50.3-40.7,91-91,91"/>
  <path class="st1" d="M97,0c0,53.6-43.4,97-97,97"/>
  <path class="st1" d="M101,0c0,55.8-45.2,101-101,101"/>
  <path class="st3" d="M107,0c0,59.1-47.9,107-107,107"/>
  <polyline class="st1" points="8 0 8 8 0 8"/>
  <line class="st2" x1="8" y1="8" x2="83" y2="8"/>
  <line class="st2" x1="8" y1="8" x2="8" y2="83"/>
  <line class="st2" x1="8" y1="8" x2="61" y2="61"/>
  <line class="st2" x1="8" y1="8" x2="61" y2="61"/>
  <line class="st2" x1="8" y1="8" x2="70.2" y2="49.9"/>
  <line class="st2" x1="8" y1="8" x2="77.2" y2="37"/>
  <line class="st2" x1="8" y1="8" x2="81.5" y2="23"/>
  <line class="st2" x1="8" y1="8" x2="22.4" y2="81.6"/>
  <line class="st2" x1="8" y1="8" x2="36.4" y2="77.4"/>
  <line class="st2" x1="8" y1="8" x2="49.4" y2="70.5"/>
</svg>