<?xml version="1.0" encoding="UTF-8"?>
<svg id="Layer_1" xmlns="http://www.w3.org/2000/svg" version="1.1" viewBox="0 0 400 400">
  <!-- Generator: Adobe Illustrator 29.2.1, SVG Export Plug-In . SVG Version: 2.1.0 Build 116)  -->
  <defs>
    <style>
      .st0, .st1, .st2 {
        fill: none;
        stroke: #fff;
        stroke-miterlimit: 10;
      }

      .st1 {
        stroke-width: 2px;
      }

      .st2 {
        stroke-width: 2.3px;
      }
    </style>
  </defs>
  <path d="M400,91c-50.3,0-91-40.7-91-91h91v91Z"/>
  <path class="st1" d="M400,91c-50.3,0-91-40.7-91-91"/>
  <path class="st0" d="M400,97c-53.6,0-97-43.4-97-97"/>
  <path class="st0" d="M400,101c-55.8,0-101-45.2-101-101"/>
  <path class="st1" d="M400,107c-59.1,0-107-47.9-107-107"/>
  <polyline class="st0" points="400 8 392 8 392 0"/>
  <line class="st2" x1="392" y1="8" x2="392" y2="83"/>
  <line class="st2" x1="392" y1="8" x2="317" y2="8"/>
  <line class="st2" x1="392" y1="8" x2="339" y2="61"/>
  <line class="st2" x1="392" y1="8" x2="339" y2="61"/>
  <line class="st2" x1="392" y1="8" x2="350.1" y2="70.2"/>
  <line class="st2" x1="392" y1="8" x2="363" y2="77.2"/>
  <line class="st2" x1="392" y1="8" x2="377" y2="81.5"/>
  <line class="st2" x1="392" y1="8" x2="318.4" y2="22.4"/>
  <line class="st2" x1="392" y1="8" x2="322.6" y2="36.4"/>
  <line class="st2" x1="392" y1="8" x2="329.5" y2="49.4"/>
</svg>